<mxfile host="app.diagrams.net" modified="2024-01-18T10:44:12.143Z" agent="Mozilla/5.0 (Windows NT 10.0; Win64; x64) AppleWebKit/537.36 (KHTML, like Gecko) Chrome/120.0.0.0 Safari/537.36" etag="MvAer-9ZgbcPQgnVCahf" version="22.1.21" type="device">
  <diagram name="Страница — 1" id="a4TVD9Mvv__ITOSc_i5n">
    <mxGraphModel dx="1195" dy="655" grid="1" gridSize="10" guides="1" tooltips="1" connect="1" arrows="1" fold="1" page="1" pageScale="1" pageWidth="827" pageHeight="1169" math="0" shadow="0">
      <root>
        <mxCell id="0" />
        <mxCell id="1" parent="0" />
        <mxCell id="y5-tJiYsA1Di8lVlMSXo-1" value="Поиск" style="rounded=0;whiteSpace=wrap;html=1;" vertex="1" parent="1">
          <mxGeometry x="160" y="290" width="130" height="20" as="geometry" />
        </mxCell>
        <mxCell id="y5-tJiYsA1Di8lVlMSXo-2" value="Втулка ХРТ 0.00.1" style="rounded=0;whiteSpace=wrap;html=1;" vertex="1" parent="1">
          <mxGeometry x="160" y="330" width="130" height="20" as="geometry" />
        </mxCell>
        <mxCell id="y5-tJiYsA1Di8lVlMSXo-3" value="Втулка ХРТ 0.00.1" style="rounded=0;whiteSpace=wrap;html=1;fillColor=#d5e8d4;strokeColor=#82b366;" vertex="1" parent="1">
          <mxGeometry x="160" y="310" width="130" height="20" as="geometry" />
        </mxCell>
        <mxCell id="y5-tJiYsA1Di8lVlMSXo-4" value="15.03.2024" style="rounded=0;whiteSpace=wrap;html=1;fillColor=#d5e8d4;strokeColor=#82b366;" vertex="1" parent="1">
          <mxGeometry x="290" y="310" width="70" height="20" as="geometry" />
        </mxCell>
        <mxCell id="y5-tJiYsA1Di8lVlMSXo-5" value="20.01.2024" style="rounded=0;whiteSpace=wrap;html=1;" vertex="1" parent="1">
          <mxGeometry x="290" y="330" width="70" height="20" as="geometry" />
        </mxCell>
        <mxCell id="y5-tJiYsA1Di8lVlMSXo-6" value="15654" style="rounded=0;whiteSpace=wrap;html=1;fillColor=#d5e8d4;strokeColor=#82b366;" vertex="1" parent="1">
          <mxGeometry x="90" y="310" width="70" height="20" as="geometry" />
        </mxCell>
        <mxCell id="y5-tJiYsA1Di8lVlMSXo-7" value="25654" style="rounded=0;whiteSpace=wrap;html=1;" vertex="1" parent="1">
          <mxGeometry x="90" y="330" width="70" height="20" as="geometry" />
        </mxCell>
        <mxCell id="y5-tJiYsA1Di8lVlMSXo-9" style="edgeStyle=orthogonalEdgeStyle;rounded=0;orthogonalLoop=1;jettySize=auto;html=1;exitX=0.5;exitY=1;exitDx=0;exitDy=0;entryX=0.5;entryY=0;entryDx=0;entryDy=0;fillColor=#f8cecc;strokeColor=#b85450;" edge="1" parent="1" source="y5-tJiYsA1Di8lVlMSXo-8" target="y5-tJiYsA1Di8lVlMSXo-1">
          <mxGeometry relative="1" as="geometry" />
        </mxCell>
        <mxCell id="y5-tJiYsA1Di8lVlMSXo-8" value="При вводе подбирать варианты по названию" style="rounded=0;whiteSpace=wrap;html=1;fillColor=#f8cecc;strokeColor=#b85450;" vertex="1" parent="1">
          <mxGeometry x="280" y="190" width="120" height="60" as="geometry" />
        </mxCell>
        <mxCell id="y5-tJiYsA1Di8lVlMSXo-10" value="110" style="rounded=0;whiteSpace=wrap;html=1;fillColor=#d5e8d4;strokeColor=#82b366;" vertex="1" parent="1">
          <mxGeometry x="360" y="310" width="60" height="20" as="geometry" />
        </mxCell>
        <mxCell id="y5-tJiYsA1Di8lVlMSXo-11" value="600" style="rounded=0;whiteSpace=wrap;html=1;" vertex="1" parent="1">
          <mxGeometry x="360" y="330" width="60" height="20" as="geometry" />
        </mxCell>
        <mxCell id="y5-tJiYsA1Di8lVlMSXo-12" value="3000" style="rounded=0;whiteSpace=wrap;html=1;" vertex="1" parent="1">
          <mxGeometry x="360" y="350" width="60" height="20" as="geometry" />
        </mxCell>
        <mxCell id="y5-tJiYsA1Di8lVlMSXo-13" value="20" style="rounded=0;whiteSpace=wrap;html=1;" vertex="1" parent="1">
          <mxGeometry x="360" y="370" width="60" height="20" as="geometry" />
        </mxCell>
        <mxCell id="y5-tJiYsA1Di8lVlMSXo-14" value="Втулка ХРТ 0.00.1" style="rounded=0;whiteSpace=wrap;html=1;" vertex="1" parent="1">
          <mxGeometry x="160" y="370" width="130" height="20" as="geometry" />
        </mxCell>
        <mxCell id="y5-tJiYsA1Di8lVlMSXo-15" value="Втулка ХРТ 0.00.1" style="rounded=0;whiteSpace=wrap;html=1;" vertex="1" parent="1">
          <mxGeometry x="160" y="350" width="130" height="20" as="geometry" />
        </mxCell>
        <mxCell id="y5-tJiYsA1Di8lVlMSXo-16" value="15.04.2024" style="rounded=0;whiteSpace=wrap;html=1;" vertex="1" parent="1">
          <mxGeometry x="290" y="350" width="70" height="20" as="geometry" />
        </mxCell>
        <mxCell id="y5-tJiYsA1Di8lVlMSXo-17" value="20.05.2024" style="rounded=0;whiteSpace=wrap;html=1;" vertex="1" parent="1">
          <mxGeometry x="290" y="370" width="70" height="20" as="geometry" />
        </mxCell>
        <mxCell id="y5-tJiYsA1Di8lVlMSXo-18" value="35654" style="rounded=0;whiteSpace=wrap;html=1;" vertex="1" parent="1">
          <mxGeometry x="90" y="350" width="70" height="20" as="geometry" />
        </mxCell>
        <mxCell id="y5-tJiYsA1Di8lVlMSXo-19" value="45654" style="rounded=0;whiteSpace=wrap;html=1;" vertex="1" parent="1">
          <mxGeometry x="90" y="370" width="70" height="20" as="geometry" />
        </mxCell>
        <mxCell id="y5-tJiYsA1Di8lVlMSXo-24" value="Втулка ХРТ 0.00.1" style="rounded=0;whiteSpace=wrap;html=1;fillColor=#d5e8d4;strokeColor=#82b366;" vertex="1" parent="1">
          <mxGeometry x="547" y="310" width="130" height="20" as="geometry" />
        </mxCell>
        <mxCell id="y5-tJiYsA1Di8lVlMSXo-25" value="15.03.2024" style="rounded=0;whiteSpace=wrap;html=1;fillColor=#d5e8d4;strokeColor=#82b366;" vertex="1" parent="1">
          <mxGeometry x="677" y="310" width="70" height="20" as="geometry" />
        </mxCell>
        <mxCell id="y5-tJiYsA1Di8lVlMSXo-26" value="15654" style="rounded=0;whiteSpace=wrap;html=1;fillColor=#d5e8d4;strokeColor=#82b366;" vertex="1" parent="1">
          <mxGeometry x="477" y="310" width="70" height="20" as="geometry" />
        </mxCell>
        <mxCell id="y5-tJiYsA1Di8lVlMSXo-27" value="110 шт" style="rounded=0;whiteSpace=wrap;html=1;fillColor=#d5e8d4;strokeColor=#82b366;" vertex="1" parent="1">
          <mxGeometry x="747" y="310" width="60" height="20" as="geometry" />
        </mxCell>
        <mxCell id="y5-tJiYsA1Di8lVlMSXo-29" value="005" style="rounded=0;whiteSpace=wrap;html=1;" vertex="1" parent="1">
          <mxGeometry x="747" y="330" width="60" height="20" as="geometry" />
        </mxCell>
        <mxCell id="y5-tJiYsA1Di8lVlMSXo-30" value="015" style="rounded=0;whiteSpace=wrap;html=1;fillColor=#d5e8d4;strokeColor=#82b366;" vertex="1" parent="1">
          <mxGeometry x="747" y="370" width="60" height="20" as="geometry" />
        </mxCell>
        <mxCell id="y5-tJiYsA1Di8lVlMSXo-31" value="010" style="rounded=0;whiteSpace=wrap;html=1;" vertex="1" parent="1">
          <mxGeometry x="747" y="350" width="60" height="20" as="geometry" />
        </mxCell>
        <mxCell id="y5-tJiYsA1Di8lVlMSXo-32" value="WNMG - 38 шт&lt;br&gt;сверло 20 - 3 шт&lt;br&gt;Фреза 20 - 4 шт&lt;br&gt;метчик М8 - 5 шт" style="rounded=0;whiteSpace=wrap;html=1;align=left;" vertex="1" parent="1">
          <mxGeometry x="477" y="330" width="270" height="60" as="geometry" />
        </mxCell>
        <mxCell id="y5-tJiYsA1Di8lVlMSXo-35" style="edgeStyle=orthogonalEdgeStyle;rounded=0;orthogonalLoop=1;jettySize=auto;html=1;entryX=0.25;entryY=1;entryDx=0;entryDy=0;fillColor=#f8cecc;strokeColor=#b85450;" edge="1" parent="1" source="y5-tJiYsA1Di8lVlMSXo-34" target="y5-tJiYsA1Di8lVlMSXo-32">
          <mxGeometry relative="1" as="geometry" />
        </mxCell>
        <mxCell id="y5-tJiYsA1Di8lVlMSXo-34" value="Общее кол-во потраченого инструмента" style="rounded=0;whiteSpace=wrap;html=1;fillColor=#f8cecc;strokeColor=#b85450;" vertex="1" parent="1">
          <mxGeometry x="477" y="448" width="127" height="60" as="geometry" />
        </mxCell>
        <mxCell id="y5-tJiYsA1Di8lVlMSXo-39" style="edgeStyle=orthogonalEdgeStyle;rounded=0;orthogonalLoop=1;jettySize=auto;html=1;exitX=0.5;exitY=0;exitDx=0;exitDy=0;entryX=1;entryY=0.5;entryDx=0;entryDy=0;fillColor=#f8cecc;strokeColor=#b85450;" edge="1" parent="1" source="y5-tJiYsA1Di8lVlMSXo-37" target="y5-tJiYsA1Di8lVlMSXo-31">
          <mxGeometry relative="1" as="geometry" />
        </mxCell>
        <mxCell id="y5-tJiYsA1Di8lVlMSXo-37" value="Подробный просмотр выдачи по операциям&amp;nbsp;" style="rounded=0;whiteSpace=wrap;html=1;fillColor=#f8cecc;strokeColor=#b85450;" vertex="1" parent="1">
          <mxGeometry x="648.5" y="448" width="127" height="60" as="geometry" />
        </mxCell>
        <mxCell id="y5-tJiYsA1Di8lVlMSXo-41" style="edgeStyle=orthogonalEdgeStyle;rounded=0;orthogonalLoop=1;jettySize=auto;html=1;exitX=0.5;exitY=1;exitDx=0;exitDy=0;fillColor=#f8cecc;strokeColor=#b85450;" edge="1" parent="1" source="y5-tJiYsA1Di8lVlMSXo-40" target="y5-tJiYsA1Di8lVlMSXo-27">
          <mxGeometry relative="1" as="geometry" />
        </mxCell>
        <mxCell id="y5-tJiYsA1Di8lVlMSXo-40" value="Общее кол-во деталей" style="rounded=0;whiteSpace=wrap;html=1;fillColor=#f8cecc;strokeColor=#b85450;" vertex="1" parent="1">
          <mxGeometry x="713.5" y="190" width="127" height="60" as="geometry" />
        </mxCell>
        <mxCell id="y5-tJiYsA1Di8lVlMSXo-42" value="015" style="rounded=0;whiteSpace=wrap;html=1;fillColor=#d5e8d4;strokeColor=#82b366;" vertex="1" parent="1">
          <mxGeometry x="910" y="310" width="320" height="20" as="geometry" />
        </mxCell>
        <mxCell id="y5-tJiYsA1Di8lVlMSXo-43" value="WNMG - 38 шт" style="rounded=0;whiteSpace=wrap;html=1;" vertex="1" parent="1">
          <mxGeometry x="910" y="330" width="260" height="20" as="geometry" />
        </mxCell>
        <mxCell id="y5-tJiYsA1Di8lVlMSXo-44" value="&lt;span style=&quot;text-align: left;&quot;&gt;сверло 20 - 3 шт&lt;/span&gt;" style="rounded=0;whiteSpace=wrap;html=1;" vertex="1" parent="1">
          <mxGeometry x="910" y="350" width="261" height="20" as="geometry" />
        </mxCell>
        <mxCell id="y5-tJiYsA1Di8lVlMSXo-45" value="110 шт" style="rounded=0;whiteSpace=wrap;html=1;" vertex="1" parent="1">
          <mxGeometry x="1170" y="330" width="60" height="20" as="geometry" />
        </mxCell>
        <mxCell id="y5-tJiYsA1Di8lVlMSXo-46" value="110 шт" style="rounded=0;whiteSpace=wrap;html=1;" vertex="1" parent="1">
          <mxGeometry x="1170" y="350" width="60" height="20" as="geometry" />
        </mxCell>
      </root>
    </mxGraphModel>
  </diagram>
</mxfile>
